<?xml version="1.0" encoding="utf-8"?>
<!-- Generator: Adobe Illustrator 24.0.1, SVG Export Plug-In . SVG Version: 6.00 Build 0)  -->
<svg version="1.1" id="Layer_1" xmlns="http://www.w3.org/2000/svg" xmlns:xlink="http://www.w3.org/1999/xlink" x="0px" y="0px"
	 viewBox="0 0 954 228" style="enable-background:new 0 0 954 228;" xml:space="preserve">
<style type="text/css">
	.st0{fill:#FF0000;}
	.st1{fill:#FFFFFF;}
	.st2{fill:#282828;}
</style>
<g id="g7433">
	<path id="path7429" class="st0" d="M300.5,43.3c-3.4-12.6-13.3-22.5-25.9-25.9C251.6,11,159.5,11,159.5,11s-92.1,0-115.1,6.1
		c-12.4,3.4-22.5,13.6-25.9,26.2c-6.1,23-6.1,70.7-6.1,70.7s0,48,6.1,70.7c3.4,12.6,13.3,22.5,25.9,25.9
		c23.3,6.3,115.1,6.3,115.1,6.3s92.1,0,115.1-6.1c12.6-3.4,22.5-13.3,25.9-25.9c6.1-23,6.1-70.7,6.1-70.7S306.8,66.3,300.5,43.3
		L300.5,43.3z"/>
	<path id="polygon7431" class="st1" d="M130.2,69.9v88.2l76.6-44.1L130.2,69.9z"/>
</g>
<g id="g7451">
	<g id="g7449">
		<path id="path7435" class="st2" d="M439.6,198.6c-5.8-3.9-9.9-9.9-12.4-18.4c-2.4-8.2-3.6-19.4-3.6-32.9v-18.7
			c0-13.8,1.5-25,4.1-33.4c2.9-8.5,7.3-14.5,13.1-18.4c6.1-3.9,13.8-5.8,23.5-5.8c9.4,0,17.2,1.9,23,5.8s9.9,10.2,12.6,18.4
			c2.7,8.2,4.1,19.4,4.1,33.4v18.7c0,13.8-1.2,24.7-3.9,33.2c-2.7,8.2-6.8,14.5-12.6,18.4c-5.8,3.9-13.8,5.8-23.7,5.8
			C453.6,204.4,445.4,202.4,439.6,198.6L439.6,198.6z M472.3,178.2c1.7-4.1,2.4-11.1,2.4-20.6v-40.2c0-9.2-0.7-16-2.4-20.4
			c-1.7-4.4-4.4-6.3-8.5-6.3c-3.9,0-6.8,2.2-8.2,6.3c-1.7,4.4-2.4,11.1-2.4,20.4v40.2c0,9.4,0.7,16.5,2.4,20.6
			c1.5,4.1,4.4,6.3,8.5,6.3C467.9,184.5,470.6,182.6,472.3,178.2z"/>
		<path id="path7437" class="st2" d="M886.8,147.4v6.5c0,8.2,0.2,14.5,0.7,18.7c0.5,4.1,1.5,7.3,3.1,9c1.5,1.9,3.9,2.9,7.3,2.9
			c4.4,0,7.3-1.7,9-5.1s2.4-9,2.7-17l25,1.5c0.2,1.2,0.2,2.7,0.2,4.6c0,11.9-3.1,20.8-9.7,26.7s-15.7,8.7-27.6,8.7
			c-14.3,0-24.2-4.6-30-13.6s-8.7-22.8-8.7-41.7v-22.5c0-19.4,2.9-33.4,9-42.4s16.2-13.3,30.5-13.3c9.9,0,17.7,1.9,23,5.6
			c5.3,3.6,9,9.4,11.1,17c2.2,7.8,3.1,18.4,3.1,32v22h-48.7V147.4z M890.5,93.2c-1.5,1.9-2.4,4.8-2.9,9c-0.5,4.1-0.7,10.4-0.7,18.9
			v9.2h21.3V121c0-8.2-0.2-14.5-0.7-18.9c-0.5-4.4-1.7-7.3-3.1-9c-1.5-1.7-3.9-2.7-6.8-2.7C894.1,90.3,891.9,91.2,890.5,93.2
			L890.5,93.2z"/>
		<path id="path7439" class="st2" d="M368.9,145L335.9,25.6h28.8l11.6,54c2.9,13.3,5.1,24.7,6.5,34.2h0.7c1-6.8,3.1-17.9,6.5-33.9
			l12.1-54.3h28.8L397.7,145v57.2h-28.6V145H368.9z"/>
		<path id="path7441" class="st2" d="M597.8,73.3v129.1H575l-2.4-15.7h-0.7c-6.1,11.9-15.5,17.9-27.9,17.9c-8.5,0-14.8-2.9-18.9-8.5
			s-6.1-14.3-6.1-26.4V73.3h29.1V168c0,5.8,0.7,9.9,1.9,12.4s3.4,3.6,6.3,3.6c2.4,0,4.8-0.7,7.3-2.4c2.4-1.5,4.1-3.4,5.1-5.8V73.3
			H597.8z"/>
		<path id="path7443" class="st2" d="M746.8,73.3v129.1H724l-2.4-15.7h-0.7c-6.1,11.9-15.5,17.9-27.9,17.9c-8.5,0-14.8-2.9-18.9-8.5
			s-6.1-14.3-6.1-26.4V73.3h29.1V168c0,5.8,0.7,9.9,1.9,12.4c1.2,2.4,3.4,3.6,6.3,3.6c2.4,0,4.8-0.7,7.3-2.4
			c2.4-1.5,4.1-3.4,5.1-5.8V73.3H746.8z"/>
		<path id="path7445" class="st2" d="M676.8,49.1H648v153.1h-28.3V49.1h-28.8V25.6h86V49.1z"/>
		<path id="path7447" class="st2" d="M843,93.9c-1.7-8.2-4.6-14.1-8.5-17.7c-3.9-3.6-9.4-5.6-16.2-5.6c-5.3,0-10.4,1.5-15,4.6
			c-4.6,2.9-8.2,7-10.7,11.9h-0.2V19h-28.1v183.2h24l2.9-12.1h0.7c2.2,4.4,5.6,7.8,10.2,10.4c4.6,2.4,9.4,3.9,15,3.9
			c9.9,0,17-4.6,21.6-13.6c4.6-9,7-23.3,7-42.4v-20.4C845.4,113.3,844.7,101.9,843,93.9L843,93.9z M816.3,146.5
			c0,9.4-0.5,16.7-1.2,22s-2.2,9.2-3.9,11.4c-1.9,2.2-4.4,3.4-7.3,3.4c-2.4,0-4.6-0.5-6.5-1.7c-1.9-1.2-3.6-2.9-4.8-5.1v-73.2
			c1-3.4,2.7-6.3,5.1-8.7c2.4-2.2,5.1-3.4,7.8-3.4c2.9,0,5.3,1.2,6.8,3.4c1.7,2.4,2.7,6.3,3.4,11.6c0.7,5.6,1,13.3,1,23.3v17H816.3z
			"/>
	</g>
</g>
</svg>
